<?xml version="1.0" encoding="utf-8"?>
<!-- Generator: Adobe Illustrator 16.0.0, SVG Export Plug-In . SVG Version: 6.00 Build 0)  -->
<!DOCTYPE svg PUBLIC "-//W3C//DTD SVG 1.1//EN" "http://www.w3.org/Graphics/SVG/1.1/DTD/svg11.dtd">
<svg version="1.1" id="Layer_1" xmlns="http://www.w3.org/2000/svg" xmlns:xlink="http://www.w3.org/1999/xlink" x="0px" y="0px"
	 width="385.3px" height="72.698px" viewBox="0 0 385.3 72.698" enable-background="new 0 0 385.3 72.698" xml:space="preserve">
<polyline fill="#231F20" points="47.817,63.606 47.817,25.105 32.317,63.606 27.206,63.606 11.707,25.105 11.707,63.606 0,63.606 
	0,8.616 16.406,8.616 29.762,41.841 43.118,8.616 59.607,8.616 59.607,63.606 47.817,63.606 "/>
<polyline fill="#231F20" points="78.07,63.606 78.07,8.616 116.983,8.616 116.983,18.922 89.777,18.922 89.777,30.546 
	116.406,30.546 116.406,40.852 89.777,40.852 89.777,53.3 116.983,53.3 116.983,63.606 78.07,63.606 "/>
<polyline fill="#231F20" points="134.211,63.606 134.211,8.616 173.124,8.616 173.124,18.922 145.918,18.922 145.918,30.546 
	172.547,30.546 172.547,40.852 145.918,40.852 145.918,53.3 173.124,53.3 173.124,63.606 134.211,63.606 "/>
<path fill="#231F20" d="M186.147,55.856l6.348-8.903c3.875,4.039,9.894,7.42,17.479,7.42c6.431,0,9.563-2.968,9.563-6.101
	c0-9.729-31.658-3.051-31.658-23.744c0-9.151,7.914-16.736,20.857-16.736c8.739,0,15.994,2.638,21.436,7.667l-6.513,8.574
	c-4.452-4.122-10.388-6.018-15.994-6.018c-5.029,0-7.832,2.226-7.832,5.524c0,8.738,31.575,2.885,31.575,23.414
	c0,10.058-7.172,17.643-22.012,17.643C198.843,64.595,191.259,61.05,186.147,55.856"/>
<polyline fill="#231F20" points="246.658,63.606 246.658,8.616 285.571,8.616 285.571,18.922 258.365,18.922 258.365,30.546 
	284.994,30.546 284.994,40.852 258.365,40.852 258.365,53.3 285.571,53.3 285.571,63.606 246.658,63.606 "/>
<path fill="#0156A3" d="M380.072,17.489c-3.147-5.166-7.558-9.497-12.783-12.548C361.752,1.708,355.416,0,348.966,0
	c-12.512,0-24.176,6.486-30.821,17.032c1.297-0.076,2.498-0.113,3.636-0.113c16.629,0,32.409,6.074,44.708,17.154
	C368.533,32.337,375.358,26.166,380.072,17.489"/>
<path fill="#0156A3" d="M317.094,18.826c-2.9,5.309-4.446,11.294-4.476,17.344c-0.032,6.411,1.657,12.753,4.882,18.339
	c6.257,10.835,17.704,17.692,30.161,18.176c-0.715-1.086-1.347-2.107-1.917-3.093c-8.313-14.401-10.943-31.104-7.497-47.294
	C335.722,21.395,326.964,18.57,317.094,18.826"/>
<path fill="#0156A3" d="M349.741,72.698c6.047-0.143,12.004-1.797,17.258-4.796c5.568-3.179,10.217-7.812,13.441-13.398
	c6.256-10.835,6.47-24.179,0.66-35.208c-0.583,1.162-1.151,2.22-1.721,3.206c-8.313,14.401-21.464,25.03-37.209,30.14
	C342.652,55.281,344.583,64.277,349.741,72.698"/>
</svg>
